<svg xmlns="http://www.w3.org/2000/svg" width="64" height="64" viewBox="0 0 16.933 16.933"><g><path d="m 47.996094,4.0019531 c -1.417362,0 -2.864377,0.2793441 -4.3125,0.7050781 0.11552,0.2158113 0.217005,0.4401021 0.283203,0.6816407 l 1.193359,4.3671875 c 1.181451,-0.2992694 2.32091,-0.4971681 3.205078,-0.5644532 2.634766,0 6.418075,1.7009388 6.511719,4.4648438 -2.27e-4,2.51011 -2.044785,5.762708 -4.201172,8.275391 -1.22998,1.433209 -2.325105,2.496487 -3.154297,3.259765 0.437242,0.537432 0.797451,1.143019 1.039063,1.808594 h 1.433594 c 0.930321,-0.0035 1.721545,0.65364 1.941406,1.521484 0.890287,-0.886192 2.061164,-2.123514 3.355469,-3.777343 C 57.601717,21.79159 60,17.93248 60,14.003906 60,8.5577591 54.469068,4.0019531 47.996094,4.0019531 Z M 16.693359,10.789062 c -0.886139,0.0097 -1.828648,0.07262 -2.83789,0.216797 -2.167592,0.309655 -4.5562343,0.811988 -6.5039065,2.140625 -1.9476722,1.328639 -3.3496094,3.586331 -3.3496094,6.851563 0,3.928573 2.5635323,6.505084 4.9746094,7.978515 C 10.071273,28.645551 11.134892,29.097635 12,29.416016 V 29.007812 C 11.9958,27.909365 12.909365,26.995812 14.007812,27 h 1.425782 c 0.172996,-0.474891 0.413838,-0.914751 0.689453,-1.328125 -1.419323,-0.307902 -2.944394,-0.790505 -4.222656,-1.496094 -1.9072064,-1.052758 -3.1601566,-2.412944 -3.1601566,-4.339843 0,-1.558574 0.9299658,-2.509838 2.5253906,-3.248047 1.595424,-0.73821 3.778109,-1.070313 5.625,-1.070313 1.614235,0 3.367404,0.454763 5.326172,0.90625 L 20.90625,11.626953 c -0.0476,-0.173685 -0.07317,-0.350803 -0.0918,-0.527344 -1.253097,-0.179268 -2.588095,-0.327335 -4.121094,-0.310547 z" transform="scale(.26458)"/><path d="m 21.001953,23.998047 c -2.409282,0 -4.436122,1.72566 -4.904297,4.001953 h -2.09375 C 13.448589,27.997883 12.997883,28.448589 13,29.003906 v 3.992188 c -0.0032,0.556079 0.447822,1.007985 1.003906,1.005859 h 1.992188 v 4.996094 H 13 c -0.552263,0.0022 -0.9982,0.451642 -0.996094,1.003906 v 4.001953 C 12.006102,44.553122 12.450784,44.997804 13,45 v 8.998047 c -0.0021,0.555317 0.448589,1.006023 1.003906,1.003906 h 1.992188 C 15.996094,57.754659 18.249244,60 21.001953,60 H 43 c 2.752709,0 4.996094,-2.245341 4.996094,-4.998047 h 2.001953 c 0.555317,0.0021 1.006023,-0.448589 1.003906,-1.003906 V 45 c 0.549216,-0.0022 0.993898,-0.446878 0.996094,-0.996094 v -4.001953 c 0.0021,-0.552264 -0.443831,-1.001698 -0.996094,-1.003906 h -3.005859 v -4.996094 h 2.001953 c 0.556084,0.0021 1.007112,-0.44978 1.003906,-1.005859 V 29.003906 C 51.00407,28.448589 50.553364,27.997883 49.998047,28 H 47.894531 C 47.428223,25.723707 45.409282,23.998047 43,23.998047 Z m 0.582031,3.005859 H 42.416016 C 43.832401,27.003907 45,28.132742 45,29.535156 V 54.458985 C 45,55.861397 43.832401,57 42.416016,57 H 21.583984 C 20.1676,57 19.001953,55.861397 19.001953,54.458985 V 29.535156 c 0,-1.402414 1.165647,-2.53125 2.582031,-2.53125 z m 0,0.996094 c -0.891948,0 -1.585937,0.682 -1.585937,1.535156 v 5.462891 H 38.96875 44.003906 V 29.535156 C 44.003906,28.682 43.307965,28 42.416016,28 Z M 15,30 h 0.996094 v 2 H 15 Z m 32.996094,0 h 1.005859 v 2 h -1.005859 z m -27.998047,6.001953 v 18.457032 c 0,0.853156 0.693989,1.535156 1.585937,1.535156 h 20.832032 c 0.891949,0 1.58789,-0.682 1.58789,-1.535156 V 36.001953 h -3.283203 c 0.178393,0.303261 0.284305,0.651475 0.277344,1.025391 v 1.978515 c 0,0.583416 -0.246897,1.148063 -0.640625,1.498047 -0.393725,0.349992 -0.879277,0.501953 -1.351563,0.501953 -0.472282,0 -0.963695,-0.151968 -1.357421,-0.501953 -0.39373,-0.34998 -0.642579,-0.914631 -0.642579,-1.498047 v -1.978515 c -0.007,-0.373338 0.09899,-0.721827 0.277344,-1.025391 z m 19,0.988281 v 0.0078 2.007812 c 0,0.0079 7.6e-5,0.0023 0,0.0078 0.0058,0.0014 3.54e-4,0 0.0078,0 -7.2e-5,-0.0055 0,6e-5 0,-0.0078 v -2.007812 -0.0078 z m -15.501953,3.50586 h 9.005859 c 0.274603,0.0032 0.495205,0.227333 0.494141,0.501953 V 52.5 c 0.0011,0.27462 -0.219538,0.49871 -0.494141,0.501953 H 23.496094 C 23.221491,52.99871 23.000889,52.77462 23.001953,52.5 V 40.998047 c -0.0011,-0.27462 0.219538,-0.49871 0.494141,-0.501953 z m -9.492188,0.501953 h 1.992188 V 43 h -1.992188 z m 33.992188,0 h 2.001953 V 43 H 47.996094 Z M 25.210938,41.501953 28,44.291016 30.789062,41.501953 Z m -1.212891,0.205078 V 51.998047 H 32 V 41.708984 l -3.646484,3.644532 c -0.195487,0.19649 -0.513498,0.19649 -0.708985,0 z M 15,45 h 0.996094 v 8.001953 H 15 Z m 32.996094,0 h 1.005859 v 8.001953 h -1.005859 z" color="#000" font-family="sans-serif" font-weight="400" overflow="visible" transform="scale(.26458)" white-space="normal" style="line-height:normal;font-variant-ligatures:normal;font-variant-position:normal;font-variant-caps:normal;font-variant-numeric:normal;font-variant-alternates:normal;font-feature-settings:normal;text-indent:0;text-align:start;text-decoration-line:none;text-decoration-style:solid;text-decoration-color:#000;text-transform:none;text-orientation:mixed;shape-padding:0;isolation:auto;mix-blend-mode:normal"/><path d="M10.314453 9.5250465a.26460978.26460978 0 0 0-.259765.2695312v.5292973a.264648.264648 0 1 0 .529296 0V9.7945777A.26460978.26460978 0 0 0 10.314453 9.5250465zM10.874272 1.0599939c-.08891-.00719-.182819.00834-.267684.058911C9.1956794 1.9596477 7.739735 2.1940622 6.2394126 2.2909265 6.0527901 2.3029752 5.9046695 2.4289309 5.8332359 2.5642948 5.7618021 2.6996586 5.7442793 2.8526205 5.7862102 3.0056116l.4103111 1.5001669c.03633.1325573.1180819.2585365.2361612.3379636.1180791.079427.259239.1090375.4004924.1090375 1.6947041.019935 3.1065939-.4777209 4.5666461-1.2557374.282335-.09237.47157-.3985469.388607-.7012493l-.410311-1.49965C11.335823 1.3418241 11.243192 1.2212203 11.1125 1.138542 11.047155 1.0972029 10.963184 1.0671844 10.874272 1.0599939zm-.472839 1.183907a.13230489.13230489 0 0 1 .136942.099735l.15813.6092652a.13230489.13230489 0 1 1-.255798.066663L10.282577 2.410299A.13230489.13230489 0 0 1 10.401433 2.2439009zM9.3100262 2.6872848A.13230489.13230489 0 0 1 9.446452 2.7890872L9.6045818 3.3962853A.13230489.13230489 0 1 1 9.3487835 3.4629479L9.1906537 2.855233A.13230489.13230489 0 0 1 9.3100262 2.6872848zM8.2315391 2.9797732A.13230489.13230489 0 0 1 8.356596 3.0800257l.1565796.609265A.13242105.13242105 0 0 1 8.2568605 3.7559533L8.0987307 3.1482384A.13230489.13230489 0 0 1 8.218103 2.9802899.13230489.13230489 0 0 1 8.2315391 2.9797732zm-1.091923.1757A.13230489.13230489 0 0 1 7.264673 3.2557254l.1586466.609265A.13317137.13317137 0 1 1 7.1654543 3.9316533L7.0088746 3.322388A.13230489.13230489 0 0 1 7.12618 3.1559899.13230489.13230489 0 0 1 7.1396161 3.1554732z" color="#000" font-family="sans-serif" font-weight="400" overflow="visible" white-space="normal" style="line-height:normal;font-variant-ligatures:normal;font-variant-position:normal;font-variant-caps:normal;font-variant-numeric:normal;font-variant-alternates:normal;font-feature-settings:normal;text-indent:0;text-align:start;text-decoration-line:none;text-decoration-style:solid;text-decoration-color:#000;text-transform:none;text-orientation:mixed;shape-padding:0;isolation:auto;mix-blend-mode:normal"/></g></svg>